{"accessors":[{"bufferView":0,"componentType":5125,"count":906,"max":[388.0],"min":[0.0],"type":"SCALAR"},{"bufferView":1,"componentType":5126,"count":389,"max":[-5.997001647949219,1.6135026216506959,7.417442853506484e-13],"min":[-10.597332000732422,-1.65094792842865,-0.30000001192092898],"type":"VEC3"},{"bufferView":2,"componentType":5126,"count":389,"max":[1.0,0.9999812841415405,1.0],"min":[-1.0,-1.0,-1.0],"type":"VEC3"},{"bufferView":3,"componentType":5126,"count":389,"max":[1.0,1.0],"min":[0.0,0.0],"type":"VEC2"},{"bufferView":4,"componentType":5125,"count":1152,"max":[486.0],"min":[0.0],"type":"SCALAR"},{"bufferView":5,"componentType":5126,"count":487,"max":[10.597332000732422,1.6135026216506959,2.24241117211324e-13],"min":[5.997001647949219,-1.65094792842865,-0.30000001192092898],"type":"VEC3"},{"bufferView":6,"componentType":5126,"count":487,"max":[1.0,1.0,1.0],"min":[-1.0,-0.9999812841415405,-1.0],"type":"VEC3"},{"bufferView":7,"componentType":5126,"count":487,"max":[1.0,1.0],"min":[0.0,0.0],"type":"VEC2"},{"bufferView":8,"componentType":5125,"count":312,"max":[179.0],"min":[0.0],"type":"SCALAR"},{"bufferView":9,"componentType":5126,"count":180,"max":[-3.200000047683716,1.0334564447402955,2.2404531029897312e-13],"min":[-5.0,-1.0450046062469483,-0.699999988079071],"type":"VEC3"},{"bufferView":10,"componentType":5126,"count":180,"max":[1.0,1.0,1.0],"min":[-1.0,-1.0,-1.0],"type":"VEC3"},{"bufferView":11,"componentType":5126,"count":180,"max":[1.0,1.0],"min":[0.0,0.0],"type":"VEC2"},{"bufferView":12,"componentType":5125,"count":564,"max":[323.0],"min":[0.0],"type":"SCALAR"},{"bufferView":13,"componentType":5126,"count":324,"max":[10.597332000732422,-2.3499999046325685,2.2492099328863535e-13],"min":[-10.597332000732422,-2.833984851837158,-1.4600000381469727],"type":"VEC3"},{"bufferView":14,"componentType":5126,"count":324,"max":[1.0,1.0,1.0],"min":[-1.0,-1.0,-1.0],"type":"VEC3"},{"bufferView":15,"componentType":5126,"count":324,"max":[1.0,1.0],"min":[0.0,0.0],"type":"VEC2"},{"bufferView":16,"componentType":5125,"count":6276,"max":[2737.0],"min":[0.0],"type":"SCALAR"},{"bufferView":17,"componentType":5126,"count":2738,"max":[10.597332000732422,2.3500287532806398,3.237511983760627e-13],"min":[-10.597332000732422,-2.3499999046325685,-1.500000238418579],"type":"VEC3"},{"bufferView":18,"componentType":5126,"count":2738,"max":[1.0,1.0,1.0],"min":[-1.0,-1.0,-1.0],"type":"VEC3"},{"bufferView":19,"componentType":5126,"count":2738,"max":[1.0,1.0],"min":[0.0,0.0],"type":"VEC2"}],"asset":{"generator":"SimLab GLTF","version":"2.0"},"bufferViews":[{"buffer":0,"byteLength":3624,"target":34963},{"buffer":0,"byteLength":4668,"byteOffset":3624,"byteStride":12,"target":34962},{"buffer":0,"byteLength":4668,"byteOffset":8292,"byteStride":12,"target":34962},{"buffer":0,"byteLength":3112,"byteOffset":12960,"byteStride":8,"target":34962},{"buffer":0,"byteLength":4608,"byteOffset":16072,"target":34963},{"buffer":0,"byteLength":5844,"byteOffset":20680,"byteStride":12,"target":34962},{"buffer":0,"byteLength":5844,"byteOffset":26524,"byteStride":12,"target":34962},{"buffer":0,"byteLength":3896,"byteOffset":32368,"byteStride":8,"target":34962},{"buffer":0,"byteLength":1248,"byteOffset":36264,"target":34963},{"buffer":0,"byteLength":2160,"byteOffset":37512,"byteStride":12,"target":34962},{"buffer":0,"byteLength":2160,"byteOffset":39672,"byteStride":12,"target":34962},{"buffer":0,"byteLength":1440,"byteOffset":41832,"byteStride":8,"target":34962},{"buffer":0,"byteLength":2256,"byteOffset":43272,"target":34963},{"buffer":0,"byteLength":3888,"byteOffset":45528,"byteStride":12,"target":34962},{"buffer":0,"byteLength":3888,"byteOffset":49416,"byteStride":12,"target":34962},{"buffer":0,"byteLength":2592,"byteOffset":53304,"byteStride":8,"target":34962},{"buffer":0,"byteLength":25104,"byteOffset":55896,"target":34963},{"buffer":0,"byteLength":32856,"byteOffset":81000,"byteStride":12,"target":34962},{"buffer":0,"byteLength":32856,"byteOffset":113856,"byteStride":12,"target":34962},{"buffer":0,"byteLength":21904,"byteOffset":146712,"byteStride":8,"target":34962}],"buffers":[{"byteLength":168616,"uri":"micron.bin"}],"materials":[{"name":"Opaque(203,203,203)","alphaMode":"MASK","doubleSided":true,"pbrMetallicRoughness":{"baseColorFactor":[0.7960784435272217,0.7960784435272217,0.7960784435272217,1.0],"metallicFactor":0.0}},{"name":"Acrylic (Clear)","alphaMode":"BLEND","doubleSided":true,"pbrMetallicRoughness":{"baseColorFactor":[0.23137255012989045,0.23137255012989045,0.1411764770746231,0.5],"metallicFactor":0.0}},{"name":"Carbon Fiber - Plain","alphaMode":"MASK","doubleSided":true,"pbrMetallicRoughness":{"baseColorFactor":[0.09803921729326248,0.09803921729326248,0.09803921729326248,1.0],"metallicFactor":0.0}}],"meshes":[{"primitives":[{"attributes":{"NORMAL":2,"POSITION":1,"TEXCOORD_0":3},"indices":0,"material":0,"mode":4}]},{"primitives":[{"attributes":{"NORMAL":6,"POSITION":5,"TEXCOORD_0":7},"indices":4,"material":1,"mode":4}]},{"primitives":[{"attributes":{"NORMAL":10,"POSITION":9,"TEXCOORD_0":11},"indices":8,"material":0,"mode":4}]},{"primitives":[{"attributes":{"NORMAL":14,"POSITION":13,"TEXCOORD_0":15},"indices":12,"material":2,"mode":4}]},{"primitives":[{"attributes":{"NORMAL":18,"POSITION":17,"TEXCOORD_0":19},"indices":16,"material":0,"mode":4}]}],"nodes":[{"children":[1,2],"matrix":[1.0,0.0,0.0,0.0,0.0,4.4896593387466768e-11,-1.0,0.0,0.0,1.0,4.4896593387466768e-11,0.0,0.0,0.0,0.0,1.0]},{"name":"Camera-2","rotation":[-0.7071067690849304,0.0,0.0,-0.7071067690849304],"translation":[0.0,-0.8402865529060364,-0.0024197804741561414]},{"name":"Micron-CAD-Latest-160mm_FrontSkirt v1","children":[3,7,10,13,16,19],"rotation":[-0.7071067690849304,0.0,0.0,-0.7071067690849304],"scale":[0.009999999776482582,0.009999999776482582,0.009999999776482582]},{"name":"PowerButton v1","children":[4,5,6],"rotation":[0.7071067690849304,4.339552370467353e-30,4.339552370467353e-30,-0.7071067690849304],"translation":[0.010022823698818684,-12.5,-15.857563018798829]},{"name":"Body1","rotation":[0.0,0.0,0.0,-1.0]},{"name":"Body2","rotation":[0.0,0.0,0.0,-1.0]},{"name":"Body3","rotation":[0.0,0.0,0.0,-1.0]},{"name":"Body1","children":[9],"rotation":[0.0,0.0,0.0,-1.0]},{"mesh":0},{"children":[8]},{"name":"Body2","children":[12],"rotation":[0.0,0.0,0.0,-1.0]},{"mesh":1},{"children":[11]},{"name":"Body3","children":[15],"rotation":[0.0,0.0,0.0,-1.0]},{"mesh":2},{"children":[14]},{"name":"Body4","children":[18],"rotation":[0.0,0.0,0.0,-1.0]},{"mesh":3},{"children":[17]},{"name":"Body5","children":[21],"rotation":[0.0,0.0,0.0,-1.0]},{"mesh":4},{"children":[20]}],"samplers":[{"wrapS":10497,"wrapT":10497}],"scene":0,"scenes":[{"nodes":[0]}]}